<svg id="SvgjsSvg1001" width="288" height="288" xmlns="http://www.w3.org/2000/svg" version="1.1" xmlns:xlink="http://www.w3.org/1999/xlink" xmlns:svgjs="http://svgjs.com/svgjs"><defs id="SvgjsDefs1002"></defs><g id="SvgjsG1008" transform="matrix(0.9167,0,0,0.9167,11.99520054370106,11.99521334609986)"><svg xmlns="http://www.w3.org/2000/svg" width="288" height="288" enable-background="new 0 0 873.72 873.72" viewBox="0 0 873.72 873.72"><path d="M221.325,149.981c-20.379-20.625-53.62-20.824-74.245-0.445L15.6,279.448c-9.905,9.787-15.516,23.106-15.599,37.029
		c-0.083,13.925,5.367,27.311,15.154,37.216l131.682,133.271c10.27,10.396,23.804,15.601,37.347,15.601
		c13.329,0,26.667-5.046,36.898-15.155c20.625-20.379,20.825-53.62,0.446-74.245l-42.677-43.191H607.38
		c88.963,0,161.34,72.377,161.34,161.34v4.319c0,43.097-16.781,83.611-47.255,114.084c-20.502,20.502-20.502,53.744,0,74.246
		c10.252,10.252,23.687,15.377,37.123,15.377c13.435,0,26.873-5.127,37.123-15.377c50.305-50.305,78.009-117.188,78.009-188.331
		v-4.319c0-71.143-27.704-138.026-78.009-188.332c-50.305-50.305-117.189-78.009-188.331-78.009H179.641l41.238-40.747
		C241.505,203.846,241.704,170.606,221.325,149.981z" fill="#e4e8ee" class="color000 svgShape"></path></svg></g></svg>